<?xml version="1.0"?>
<svg width="53" height="72" xmlns="http://www.w3.org/2000/svg" xmlns:svg="http://www.w3.org/2000/svg">

 <g>
  <path id="k1" class="k1"  d="M 19.8 1.3 l 0 68.4 l -18.1 0 l 0 -8 l 8.4 0 l 0 -52.4 l -8.4 0 l 0 -8 l 18.1 0 z" />
  <path id="k2" fill="#d8450b" d="M 27 39.7 l 0 -8.5 q 2.7 -0.1 4 -0.8 q 1.3 -0.6 2.3 -2.1 q 1 -1.5 1.3 -3.8 q 0.3 -1.7 0.3 -5.9 q 0 -6.9 0.7 -9.6 q 0.7 -2.7 2.4 -4.4 q 1.7 -1.7 5 -2.6 q 2.2 -0.6 7 -0.6 l 1.9 0 l 0 8.5 q -4 0 -5.2 0.5 q -1.1 0.4 -1.7 1.4 q -0.5 0.9 -0.5 3.1 q 0 2.2 -0.3 8.5 q -0.2 3.5 -0.9 5.7 q -0.8 2.2 -2 3.6 q -1.2 1.4 -3.6 3 q 2.1 1.2 3.5 2.8 q 1.4 1.6 2.1 3.9 q 0.7 2.3 0.9 6.2 q 0.3 5.9 0.3 7.5 q 0 2.3 0.6 3.3 q 0.6 0.9 1.7 1.4 q 1.2 0.5 5.1 0.5 l 0 8.5 l -1.9 0 q -4.9 0 -7.5 -0.8 q -2.6 -0.7 -4.4 -2.5 q -1.8 -1.8 -2.4 -4.4 q -0.6 -2.6 -0.6 -8.2 q 0 -6.5 -0.6 -8.5 q -0.8 -2.8 -2.4 -4.1 q -1.6 -1.2 -5 -1.4 l 0 0 l 0 0 z" />
 </g>
</svg>