<?xml version="1.0"?>
<svg width="50.602597" height="69.96985599999998" xmlns="http://www.w3.org/2000/svg" xmlns:svg="http://www.w3.org/2000/svg">
 <g>
  <title>Layer 1</title>
  <path d="m18.129551,2.08564l0,68.404457l-18.129551,0l0,-8.045437l8.40949,0l0,-52.38639l-8.40949,0l0,-7.972631l18.129551,0z" fill="#d8450b" id="svg_1"/>
  <path d="m25.34577,40.555569l0,-8.5354q2.657539,-0.142307 4.004511,-0.782398q1.346979,-0.64016 2.329908,-2.13386q0.98292,-1.529261 1.346979,-3.805361q0.291233,-1.707079 0.291233,-5.93922q0,-6.899449 0.655289,-9.602329q0.655281,-2.73845 2.366299,-4.3744q1.711021,-1.67152 4.98745,-2.63175q2.22068,-0.64015 6.9897,-0.64015l1.929451,0l0,8.49984q-4.04092,0 -5.205868,0.46233q-1.128551,0.42676 -1.674622,1.351439q-0.546059,0.889111 -0.546059,3.09408q0,2.24055 -0.327633,8.499841q-0.182018,3.520849 -0.946518,5.725819q-0.7645,2.16942 -1.965862,3.591991q-1.164948,1.422558 -3.604057,2.95182q2.147881,1.209167 3.49485,2.845131q1.383377,1.600388 2.111469,3.91206q0.728088,2.31168 0.946518,6.188179q0.254852,5.903648 0.254852,7.5396q0,2.34724 0.582478,3.271908q0.582493,0.924671 1.747433,1.387001q1.201347,0.49789 5.133068,0.49789l0,8.535419l-1.929459,0q-4.914631,0 -7.53577,-0.782417q-2.621181,-0.746849 -4.441422,-2.525055q-1.783829,-1.778206 -2.40271,-4.409958q-0.618877,-2.596191 -0.618877,-8.215328q0,-6.543812 -0.582481,-8.49984q-0.8009,-2.845142 -2.43911,-4.054321q-1.60181,-1.244732 -4.95104,-1.422562l0,-0.000008l0,0.000008z" fill="#d8450b" id="svg_2"/>
 </g>
</svg>